<?xml version="1.0" encoding="utf-8"?>
<!-- Generator: Adobe Illustrator 16.0.0, SVG Export Plug-In . SVG Version: 6.00 Build 0)  -->
<!DOCTYPE svg PUBLIC "-//W3C//DTD SVG 1.1//EN" "http://www.w3.org/Graphics/SVG/1.1/DTD/svg11.dtd">
<svg version="1.1" id="Capa_1" xmlns="http://www.w3.org/2000/svg" xmlns:xlink="http://www.w3.org/1999/xlink" x="0px" y="0px"
	 width="500px" height="413.649px" viewBox="0 43.176 500 413.649" enable-background="new 0 43.176 500 413.649"
	 xml:space="preserve">
<g>
	<g id="Icons_38_">
		<path fill="#FFFFFF" d="M492.95,102.403c-7.367-10.617-19.478-16.959-32.416-16.959H216.035c-9.126,0-16.535,7.406-16.535,16.541
			c0,9.132,7.409,16.537,16.535,16.537h244.498c2.084,0,4.054,1.017,5.25,2.754c1.197,1.712,1.471,3.908,0.742,5.863
			l-45.819,123.331c-0.921,2.494-3.344,4.174-5.994,4.174H157.781L116.855,80.011c-5.091-21.682-24.196-36.834-46.485-36.834H24.808
			C11.096,43.176,0,54.281,0,67.985c0,13.707,11.096,24.808,24.808,24.808h44.08l55.106,235.136
			c4.987,21.255,23.48,36.147,45.191,36.729c-12.763,9.265-21.126,24.196-21.126,41.169c0,28.17,22.822,50.999,50.99,50.999
			c28.153,0,50.985-22.83,50.985-50.999c0-16.91-8.331-31.785-20.994-41.063h95.132c-12.683,9.277-21.012,24.152-21.012,41.063
			c0,28.17,22.833,50.999,50.983,50.999c28.17,0,51.008-22.83,51.008-50.999c0-16.91-8.337-31.785-21.012-41.063h23.124
			c13.712,0,24.81-11.105,24.81-24.809c0-13.704-11.097-24.809-24.81-24.809H171.96l-6.428-27.425h249.18
			c16.391,0,31.267-10.328,36.985-25.722l45.838-123.353C502.025,126.531,500.313,112.975,492.95,102.403z"/>
	</g>
</g>
</svg>
